<?xml version="1.0" standalone="no"?>
<!DOCTYPE svg PUBLIC "-//W3C//DTD SVG 20010904//EN"
 "http://www.w3.org/TR/2001/REC-SVG-20010904/DTD/svg10.dtd">
<svg version="1.0" xmlns="http://www.w3.org/2000/svg"
 width="300.000000pt" height="300.000000pt" viewBox="0 0 300.000000 300.000000"
 preserveAspectRatio="xMidYMid meet">
<metadata>
Created by potrace 1.11, written by Peter Selinger 2001-2013
</metadata>
<g transform="translate(0.000000,300.000000) scale(0.100000,-0.100000)"
fill="#000000" stroke="none">
<path d="M1285 2925 c-324 -51 -594 -190 -825 -424 -187 -189 -301 -397 -376
-686 -28 -105 -29 -121 -29 -325 0 -204 1 -220 29 -325 53 -205 110 -335 214
-491 305 -454 864 -699 1408 -619 124 19 330 83 435 135 313 158 576 442 698
753 144 370 144 724 0 1092 -123 314 -383 596 -694 752 -109 55 -313 119 -439
138 -122 18 -309 18 -421 0z m715 -1401 l0 -375 -52 3 -53 3 -3 367 c-3 410
-9 374 71 377 l37 1 0 -376z m-371 133 c62 -41 94 -104 99 -198 l5 -79 -178 0
-177 0 7 -32 c21 -106 132 -151 238 -99 45 23 49 21 78 -31 12 -21 -18 -43
-87 -64 -144 -43 -287 21 -328 147 -22 71 -21 166 4 233 28 74 54 104 114 133
69 33 167 28 225 -10z m-529 -20 c0 -41 -9 -55 -135 -215 -74 -94 -135 -174
-135 -177 0 -3 62 -5 138 -5 l138 0 -5 -42 -6 -43 -202 -3 -203 -2 0 40 c0 37
12 56 140 218 l139 177 -129 3 -130 3 0 44 0 45 195 0 195 0 0 -43z m1218 4
c-18 -21 -66 -74 -106 -119 l-72 -80 115 -141 c63 -78 115 -143 115 -146 0 -3
-29 -5 -64 -5 l-64 0 -112 141 c-66 83 -109 147 -106 155 3 8 49 64 103 124
l98 110 63 0 64 0 -34 -39z"/>
<path d="M1444 1591 c-31 -19 -64 -82 -64 -122 0 -19 6 -19 123 -17 l122 3 -3
35 c-11 102 -96 151 -178 101z"/>
</g>
</svg>
